<svg width="333" height="281" viewBox="0 0 333 281" fill="none" xmlns="http://www.w3.org/2000/svg">
<g id="butterfly1">
<path id="left" d="M12.727 90.0064C-8.27295 53.0064 0.992666 17.3251 24.227 5.00637C42.3946 -4.31245 77 3.6975 95.2271 18.0064C99.7432 21.5517 120.994 40.0487 134.227 58.0064C189.727 129.506 183.227 207.006 128.727 258.506C99.2271 283.006 75.5 284.5 50 273C91 247.5 114.841 205.006 84.2271 165.006C65.9865 141.174 54.6869 129.818 33.227 112.006C23.1172 103.17 18.7768 98.3702 12.727 90.0064Z" stroke="black"/>
<path id="leftbottom" d="M84.5 165.5C115.114 205.5 91 247.5 50 273C21.9071 254.068 17.7557 233.5 27.7557 208C35.7557 191 53.5697 175.761 84.5 165.5Z" stroke="black"/>
<path id="right" d="M320.123 90.0064C341.122 53.0064 331.857 17.3251 308.623 5.00637C290.455 -4.31245 255.849 3.6975 237.622 18.0064C233.106 21.5517 211.856 40.0487 198.622 58.0064C143.122 129.506 149.622 207.006 204.122 258.506C233.622 283.006 257.349 284.5 282.849 273C241.849 247.5 218.008 205.006 248.622 165.006C266.863 141.174 278.163 129.818 299.622 112.006C309.732 103.17 314.073 98.3702 320.123 90.0064Z" stroke="black"/>
<path id="rightbottom" d="M248.349 165.5C217.735 205.5 241.849 247.5 282.849 273C310.942 254.068 315.094 233.5 305.094 208C297.094 191 279.28 175.761 248.349 165.5Z" stroke="black"/>
<path id="center" d="M166.5 118C175.249 152.795 173.548 170.464 166.5 200.86C157.815 170.071 157.671 151.953 166.5 118Z" stroke="black"/>
</g>
</svg>
