<svg width="1493" height="458" viewBox="0 0 1493 458" fill="none" xmlns="http://www.w3.org/2000/svg">
<rect width="1493" height="458" fill="#1E1E1E"/>
<g id="MacBook Pro 16&#34; - 2">
<rect width="1728" height="1117" transform="translate(-117 -329)" fill="white"/>
<g id="Component 2">
<g id="Component 1">
<path id="Vector 3" d="M11.727 183.006C-9.27295 146.006 -0.00733376 110.325 23.227 98.0064C41.3946 88.6875 76 96.6975 94.2271 111.006C98.7432 114.552 119.994 133.049 133.227 151.006C188.727 222.506 182.227 300.006 127.727 351.506C98.2271 376.006 74.5 377.5 49 366C90 340.5 113.841 298.006 83.2271 258.006C64.9865 234.174 53.6869 222.818 32.227 205.006C22.1172 196.17 17.7768 191.37 11.727 183.006Z" fill="url(#paint0_linear_0_1)"/>
<path id="Vector 4" d="M83.5 258.5C114.114 298.5 90 340.5 49 366C20.9071 347.068 16.7557 326.5 26.7557 301C34.7557 284 52.5697 268.761 83.5 258.5Z" fill="url(#paint1_linear_0_1)"/>
<path id="Vector 5" d="M319.123 183.006C340.122 146.006 330.857 110.325 307.623 98.0064C289.455 88.6875 254.849 96.6975 236.622 111.006C232.106 114.552 210.856 133.049 197.622 151.006C142.122 222.506 148.622 300.006 203.122 351.506C232.622 376.006 256.349 377.5 281.849 366C240.849 340.5 217.008 298.006 247.622 258.006C265.863 234.174 277.163 222.818 298.622 205.006C308.732 196.17 313.073 191.37 319.123 183.006Z" fill="url(#paint2_linear_0_1)"/>
<path id="Vector 6" d="M247.349 258.5C216.735 298.5 240.849 340.5 281.849 366C309.942 347.068 314.094 326.5 304.094 301C296.094 284 278.28 268.761 247.349 258.5Z" fill="url(#paint3_linear_0_1)"/>
<path id="Vector 7" d="M165.5 211C174.249 245.795 172.548 263.464 165.5 293.86C156.815 263.071 156.671 244.953 165.5 211Z" fill="#C97791"/>
</g>
<path id="TEZIX" d="M437.31 373V95.32H515.31V373H437.31ZM354.24 161.62V95.32H598.77V161.62H354.24ZM624.19 373V95.32H702.19V373H624.19ZM687.37 373V308.26H836.35V373H687.37ZM687.37 263.02V199.84H821.92V263.02H687.37ZM687.37 160.06V95.32H834.01V160.06H687.37ZM856.502 318.79L984.422 149.53H1079.58L951.272 318.79H856.502ZM856.502 373V318.79L899.012 308.65H1076.07V373H856.502ZM862.742 159.67V95.32H1079.58V149.53L1036.29 159.67H862.742ZM1109.6 373V95.32H1187.6V373H1109.6ZM1398.34 373L1325.02 249.37H1318.39L1214.26 95.32H1307.08L1378.06 211.93H1384.69L1489.99 373H1398.34ZM1209.19 373L1309.03 224.41L1372.21 250.93L1298.5 373H1209.19ZM1385.86 243.91L1322.68 217.39L1395.61 95.32H1484.92L1385.86 243.91Z" fill="url(#paint4_linear_0_1)"/>
</g>
</g>
<defs>
<linearGradient id="paint0_linear_0_1" x1="179" y1="243.5" x2="-3.49288e-06" y2="246.5" gradientUnits="userSpaceOnUse">
<stop stop-color="#FEBAAF"/>
<stop offset="1" stop-color="#FFC2A2"/>
</linearGradient>
<linearGradient id="paint1_linear_0_1" x1="104" y1="312" x2="10.5" y2="312" gradientUnits="userSpaceOnUse">
<stop stop-color="#D88B97"/>
<stop offset="1" stop-color="#E49699"/>
</linearGradient>
<linearGradient id="paint2_linear_0_1" x1="151.849" y1="243.5" x2="330.849" y2="246.5" gradientUnits="userSpaceOnUse">
<stop stop-color="#FEB9B1"/>
<stop offset="1" stop-color="#FEB1BD"/>
</linearGradient>
<linearGradient id="paint3_linear_0_1" x1="229" y1="312" x2="315" y2="312" gradientUnits="userSpaceOnUse">
<stop stop-color="#B66388"/>
<stop offset="1" stop-color="#AC5585"/>
</linearGradient>
<linearGradient id="paint4_linear_0_1" x1="1493" y1="229" x2="348" y2="229" gradientUnits="userSpaceOnUse">
<stop stop-color="#AD5686"/>
<stop offset="1" stop-color="#E5979A"/>
</linearGradient>
</defs>
</svg>
