<svg width="198" height="61" viewBox="0 0 198 61" fill="none" xmlns="http://www.w3.org/2000/svg">
<g id="Component 2">
<g id="Component 1">
<path id="Vector 3" d="M1.54736 24.3742C-1.22356 19.4463 -0.000967683 14.694 3.06478 13.0533C5.46198 11.8121 10.0281 12.8789 12.4332 14.7847C13.0291 15.2569 15.8331 17.7205 17.5792 20.1122C24.9024 29.6351 24.0447 39.9572 16.8535 46.8163C12.961 50.0794 9.83021 50.2784 6.46551 48.7467C11.8754 45.3504 15.0213 39.6908 10.9817 34.3633C8.57491 31.1891 7.08394 29.6767 4.25233 27.3043C2.91834 26.1275 2.34564 25.4882 1.54736 24.3742Z" fill="url(#paint0_linear_173_145)"/>
<path id="Vector 4" d="M11.0178 34.429C15.0573 39.7566 11.8754 45.3504 6.46553 48.7467C2.7587 46.2253 2.21093 43.4858 3.53042 40.0895C4.58601 37.8253 6.93655 35.7956 11.0178 34.429Z" fill="url(#paint1_linear_173_145)"/>
<path id="Vector 5" d="M42.1079 24.3742C44.8788 19.4463 43.6562 14.694 40.5905 13.0533C38.1933 11.8121 33.6271 12.8789 31.2221 14.7847C30.6262 15.2569 27.8222 17.7205 26.0761 20.1122C18.7529 29.6351 19.6106 39.9572 26.8018 46.8163C30.6943 50.0794 33.8251 50.2784 37.1898 48.7467C31.7799 45.3504 28.634 39.6908 32.6735 34.3633C35.0804 31.1891 36.5713 29.6767 39.4029 27.3043C40.7369 26.1275 41.3096 25.4882 42.1079 24.3742Z" fill="url(#paint2_linear_173_145)"/>
<path id="Vector 6" d="M32.6375 34.429C28.598 39.7566 31.7798 45.3504 37.1897 48.7467C40.8966 46.2253 41.4443 43.4858 40.1249 40.0895C39.0693 37.8253 36.7187 35.7956 32.6375 34.429Z" fill="url(#paint3_linear_173_145)"/>
<path id="Vector 7" d="M21.8375 28.1026C22.9919 32.7369 22.7676 35.0902 21.8375 39.1386C20.6916 35.0378 20.6726 32.6247 21.8375 28.1026Z" fill="#C97791"/>
</g>
<path id="TEZIX" d="M47.1358 20.5909V12.6364H78.7409V20.5909H67.8034V49H58.0733V20.5909H47.1358ZM82.4563 49V12.6364H108.664V20.5909H92.3285V26.8409H107.314V34.7955H92.3285V41.0455H108.593V49H82.4563ZM113.702 49V43.5312L130.889 20.5909H113.773V12.6364H143.46V18.1051L126.273 41.0455H143.389V49H113.702ZM158.149 12.6364V49H148.277V12.6364H158.149ZM173.41 12.6364L179.376 23.2188H179.66L185.697 12.6364H196.705L185.839 30.8182L197.131 49H185.839L179.66 38.2045H179.376L173.197 49H161.975L173.126 30.8182L162.33 12.6364H173.41Z" fill="#F3F3F3"/>
</g>
<defs>
<linearGradient id="paint0_linear_173_145" x1="23.6189" y1="32.4312" x2="-0.000123253" y2="32.8234" gradientUnits="userSpaceOnUse">
<stop stop-color="#FEBAAF"/>
<stop offset="1" stop-color="#FFC2A2"/>
</linearGradient>
<linearGradient id="paint1_linear_173_145" x1="13.7227" y1="41.5546" x2="1.38549" y2="41.5546" gradientUnits="userSpaceOnUse">
<stop stop-color="#D88B97"/>
<stop offset="1" stop-color="#E49699"/>
</linearGradient>
<linearGradient id="paint2_linear_173_145" x1="20.0364" y1="32.4312" x2="43.6554" y2="32.8234" gradientUnits="userSpaceOnUse">
<stop stop-color="#FEB9B1"/>
<stop offset="1" stop-color="#FEB1BD"/>
</linearGradient>
<linearGradient id="paint3_linear_173_145" x1="30.2163" y1="41.5546" x2="41.5639" y2="41.5546" gradientUnits="userSpaceOnUse">
<stop stop-color="#B66388"/>
<stop offset="1" stop-color="#AC5585"/>
</linearGradient>
</defs>
</svg>
