<svg width="45" height="47" viewBox="0 0 45 47" fill="none" xmlns="http://www.w3.org/2000/svg">
<g id="Component 11">
<path id="Ellipse-1" d="M11 5.5C11 8.53757 8.53757 11 5.5 11C2.46243 11 0 8.53757 0 5.5C0 2.46243 2.46243 0 5.5 0C8.53757 0 11 2.46243 11 5.5Z" fill="#D9D9D9"/>
<path id="Ellipse-2" d="M45 5.5C45 8.53757 42.5376 11 39.5 11C36.4624 11 34 8.53757 34 5.5C34 2.46243 36.4624 0 39.5 0C42.5376 0 45 2.46243 45 5.5Z" fill="#D9D9D9"/>
<path id="Ellipse-3" d="M28 5.5C28 8.53757 25.5376 11 22.5 11C19.4624 11 17 8.53757 17 5.5C17 2.46243 19.4624 0 22.5 0C25.5376 0 28 2.46243 28 5.5Z" fill="#D9D9D9"/>
<path id="Ellipse-4" d="M11 23.5C11 26.5376 8.53757 29 5.5 29C2.46243 29 0 26.5376 0 23.5C0 20.4624 2.46243 18 5.5 18C8.53757 18 11 20.4624 11 23.5Z" fill="#D9D9D9"/>
<path id="Ellipse-5" d="M45 23.5C45 26.5376 42.5376 29 39.5 29C36.4624 29 34 26.5376 34 23.5C34 20.4624 36.4624 18 39.5 18C42.5376 18 45 20.4624 45 23.5Z" fill="#D9D9D9"/>
<path id="Ellipse-6" d="M28 23.5C28 26.5376 25.5376 29 22.5 29C19.4624 29 17 26.5376 17 23.5C17 20.4624 19.4624 18 22.5 18C25.5376 18 28 20.4624 28 23.5Z" fill="#D9D9D9"/>
<path id="Ellipse-7" d="M11 41.5C11 44.5376 8.53757 47 5.5 47C2.46243 47 0 44.5376 0 41.5C0 38.4624 2.46243 36 5.5 36C8.53757 36 11 38.4624 11 41.5Z" fill="#D9D9D9"/>
<path id="Ellipse-8" d="M45 41.5C45 44.5376 42.5376 47 39.5 47C36.4624 47 34 44.5376 34 41.5C34 38.4624 36.4624 36 39.5 36C42.5376 36 45 38.4624 45 41.5Z" fill="#D9D9D9"/>
<path id="Ellipse-9" d="M28 41.5C28 44.5376 25.5376 47 22.5 47C19.4624 47 17 44.5376 17 41.5C17 38.4624 19.4624 36 22.5 36C25.5376 36 28 38.4624 28 41.5Z" fill="#D9D9D9"/>
</g>
</svg>
