<svg width="1727" height="2521" viewBox="0 0 1727 2521" fill="none" xmlns="http://www.w3.org/2000/svg">
<path d="M1727 169L0 0V2313.61L1727 2520.5V169Z" fill="#FFE0D1"/>
<g opacity="0.21">
<path d="M345.521 604.289C274.749 476.549 305.975 353.361 384.278 310.832C445.505 278.659 562.129 306.313 623.556 355.713C638.776 367.953 710.392 431.813 754.99 493.811C942.031 740.661 920.126 1008.22 736.455 1186.03C637.036 1270.61 557.073 1275.77 471.136 1236.06C609.31 1148.03 689.658 1001.32 586.485 863.222C525.012 780.941 486.931 741.737 414.609 680.243C380.537 649.737 365.91 633.165 345.521 604.289Z" fill="url(#paint0_linear_296_80)"/>
<path d="M587.405 864.926C690.578 1003.02 609.31 1148.03 471.136 1236.06C376.46 1170.7 362.469 1099.69 396.17 1011.66C423.131 952.964 483.166 900.35 587.405 864.926Z" fill="url(#paint1_linear_296_80)"/>
<path d="M1381.48 604.289C1452.25 476.549 1421.02 353.361 1342.72 310.832C1281.5 278.659 1164.87 306.313 1103.44 355.713C1088.22 367.953 1016.61 431.813 972.01 493.811C784.969 740.661 806.874 1008.22 990.545 1186.03C1089.96 1270.61 1169.93 1275.77 1255.86 1236.06C1117.69 1148.03 1037.34 1001.32 1140.52 863.222C1201.99 780.941 1240.07 741.737 1312.39 680.243C1346.46 649.737 1361.09 633.165 1381.48 604.289Z" fill="url(#paint2_linear_296_80)"/>
<path d="M1139.6 864.926C1036.42 1003.02 1117.69 1148.03 1255.86 1236.06C1350.54 1170.7 1364.53 1099.69 1330.83 1011.66C1303.87 952.964 1243.83 900.35 1139.6 864.926Z" fill="url(#paint3_linear_296_80)"/>
<path d="M863.753 700.936C893.238 821.063 887.507 882.064 863.753 987.005C834.485 880.707 834 818.156 863.753 700.936Z" fill="#C97791"/>
</g>
<defs>
<linearGradient id="paint0_linear_296_80" x1="909.25" y1="813.14" x2="305.992" y2="823.009" gradientUnits="userSpaceOnUse">
<stop stop-color="#FEBAAF"/>
<stop offset="1" stop-color="#FFC2A2"/>
</linearGradient>
<linearGradient id="paint1_linear_296_80" x1="656.492" y1="1049.63" x2="341.386" y2="1049.63" gradientUnits="userSpaceOnUse">
<stop stop-color="#D88B97"/>
<stop offset="1" stop-color="#E49699"/>
</linearGradient>
<linearGradient id="paint2_linear_296_80" x1="817.75" y1="813.14" x2="1421.01" y2="823.009" gradientUnits="userSpaceOnUse">
<stop stop-color="#FEB9B1"/>
<stop offset="1" stop-color="#FEB1BD"/>
</linearGradient>
<linearGradient id="paint3_linear_296_80" x1="1077.76" y1="1049.63" x2="1367.59" y2="1049.63" gradientUnits="userSpaceOnUse">
<stop stop-color="#B66388"/>
<stop offset="1" stop-color="#AC5585"/>
</linearGradient>
</defs>
</svg>
