<svg width="1727" height="1461" viewBox="0 0 1727 1461" fill="none" xmlns="http://www.w3.org/2000/svg">
<path d="M1727 181.922L0 0V1256.57L1727 1461V181.922Z" fill="#FFE0D1"/>
<g opacity="0.21">
<path d="M345.521 556.289C274.749 428.549 305.975 305.361 384.278 262.832C445.505 230.659 562.129 258.313 623.556 307.713C638.776 319.953 710.392 383.813 754.99 445.811C942.031 692.661 920.126 960.225 736.455 1138.03C637.036 1222.61 557.073 1227.77 471.136 1188.06C609.31 1100.03 689.658 953.32 586.485 815.222C525.012 732.941 486.931 693.737 414.609 632.243C380.537 601.737 365.91 585.165 345.521 556.289Z" fill="url(#paint0_linear_294_82)"/>
<path d="M587.405 816.926C690.578 955.024 609.31 1100.03 471.136 1188.06C376.46 1122.7 362.469 1051.69 396.17 963.655C423.131 904.964 483.166 852.35 587.405 816.926Z" fill="url(#paint1_linear_294_82)"/>
<path d="M1381.48 556.289C1452.25 428.549 1421.02 305.361 1342.72 262.832C1281.5 230.659 1164.87 258.313 1103.44 307.713C1088.22 319.953 1016.61 383.813 972.01 445.811C784.969 692.661 806.874 960.225 990.545 1138.03C1089.96 1222.61 1169.93 1227.77 1255.86 1188.06C1117.69 1100.03 1037.34 953.32 1140.52 815.222C1201.99 732.941 1240.07 693.737 1312.39 632.243C1346.46 601.737 1361.09 585.165 1381.48 556.289Z" fill="url(#paint2_linear_294_82)"/>
<path d="M1139.6 816.926C1036.42 955.024 1117.69 1100.03 1255.86 1188.06C1350.54 1122.7 1364.53 1051.69 1330.83 963.655C1303.87 904.964 1243.83 852.35 1139.6 816.926Z" fill="url(#paint3_linear_294_82)"/>
<path d="M863.753 652.936C893.238 773.063 887.507 834.064 863.753 939.005C834.485 832.707 834 770.156 863.753 652.936Z" fill="#C97791"/>
</g>
<defs>
<linearGradient id="paint0_linear_294_82" x1="909.25" y1="765.14" x2="305.992" y2="775.009" gradientUnits="userSpaceOnUse">
<stop stop-color="#FEBAAF"/>
<stop offset="1" stop-color="#FFC2A2"/>
</linearGradient>
<linearGradient id="paint1_linear_294_82" x1="656.492" y1="1001.63" x2="341.386" y2="1001.63" gradientUnits="userSpaceOnUse">
<stop stop-color="#D88B97"/>
<stop offset="1" stop-color="#E49699"/>
</linearGradient>
<linearGradient id="paint2_linear_294_82" x1="817.75" y1="765.14" x2="1421.01" y2="775.009" gradientUnits="userSpaceOnUse">
<stop stop-color="#FEB9B1"/>
<stop offset="1" stop-color="#FEB1BD"/>
</linearGradient>
<linearGradient id="paint3_linear_294_82" x1="1077.76" y1="1001.63" x2="1367.59" y2="1001.63" gradientUnits="userSpaceOnUse">
<stop stop-color="#B66388"/>
<stop offset="1" stop-color="#AC5585"/>
</linearGradient>
</defs>
</svg>
