<svg width="1728" height="783" viewBox="0 0 1728 783" fill="none" xmlns="http://www.w3.org/2000/svg">
<rect width="1730" height="783" fill="#FFE0D1"/>
<g opacity="0.21">
<path d="M102.705 277.096C58.4647 197.241 77.9845 120.233 126.932 93.6466C165.206 73.5345 238.109 90.8218 276.508 121.704C286.022 129.355 330.79 169.276 358.669 208.033C475.591 362.345 461.897 529.608 347.082 640.756C284.935 693.633 234.949 696.856 181.228 672.037C267.603 617.002 317.829 525.291 253.334 438.962C214.907 387.526 191.102 363.018 145.893 324.577C124.594 305.506 115.45 295.147 102.705 277.096Z" fill="url(#paint0_linear_295_79)"/>
<path d="M253.909 440.028C318.404 526.357 267.603 617.002 181.228 672.037C122.045 631.178 113.299 586.787 134.366 531.752C151.22 495.062 188.749 462.172 253.909 440.028Z" fill="url(#paint1_linear_295_79)"/>
<path d="M750.295 277.096C794.535 197.241 775.015 120.233 726.068 93.6466C687.794 73.5345 614.891 90.8218 576.492 121.704C566.978 129.355 522.21 169.276 494.331 208.033C377.409 362.345 391.103 529.608 505.918 640.756C568.065 693.633 618.051 696.856 671.772 672.037C585.397 617.002 535.171 525.291 599.666 438.962C638.093 387.526 661.898 363.018 707.107 324.577C728.406 305.506 737.55 295.147 750.295 277.096Z" fill="url(#paint2_linear_295_79)"/>
<path d="M599.091 440.028C534.596 526.357 585.397 617.002 671.772 672.037C730.955 631.178 739.701 586.787 718.634 531.752C701.78 495.062 664.251 462.172 599.091 440.028Z" fill="url(#paint3_linear_295_79)"/>
<path d="M426.658 337.512C445.089 412.608 441.507 450.741 426.658 516.343C408.362 449.892 408.059 410.79 426.658 337.512Z" fill="#C97791"/>
</g>
<defs>
<linearGradient id="paint0_linear_295_79" x1="455.099" y1="407.654" x2="77.995" y2="413.824" gradientUnits="userSpaceOnUse">
<stop stop-color="#FEBAAF"/>
<stop offset="1" stop-color="#FFC2A2"/>
</linearGradient>
<linearGradient id="paint1_linear_295_79" x1="297.097" y1="555.493" x2="100.121" y2="555.493" gradientUnits="userSpaceOnUse">
<stop stop-color="#D88B97"/>
<stop offset="1" stop-color="#E49699"/>
</linearGradient>
<linearGradient id="paint2_linear_295_79" x1="397.901" y1="407.654" x2="775.005" y2="413.824" gradientUnits="userSpaceOnUse">
<stop stop-color="#FEB9B1"/>
<stop offset="1" stop-color="#FEB1BD"/>
</linearGradient>
<linearGradient id="paint3_linear_295_79" x1="560.434" y1="555.493" x2="741.61" y2="555.493" gradientUnits="userSpaceOnUse">
<stop stop-color="#B66388"/>
<stop offset="1" stop-color="#AC5585"/>
</linearGradient>
</defs>
</svg>
