<svg width="1726" height="779" viewBox="0 0 1726 779" fill="none" xmlns="http://www.w3.org/2000/svg">
<path d="M1726 97L-1 0V670L1726 779V97Z" fill="#FFE0D1"/>
<g opacity="0.21">
<path d="M85.3304 263.44C45.3425 193.004 62.986 125.078 107.229 101.627C141.823 83.8868 207.718 99.1352 242.426 126.375C251.026 133.124 291.491 168.336 316.689 202.522C422.372 338.635 409.995 486.171 306.216 584.21C250.043 630.85 204.862 633.694 156.305 611.801C234.377 563.258 279.775 482.363 221.48 406.216C186.747 360.846 165.23 339.229 124.366 305.321C105.115 288.5 96.8504 279.362 85.3304 263.44Z" fill="url(#paint0_linear_292_73)"/>
<path d="M222 407.156C280.295 483.303 234.377 563.258 156.305 611.801C102.811 575.762 94.9058 536.606 113.948 488.062C129.181 455.7 163.102 426.688 222 407.156Z" fill="url(#paint1_linear_292_73)"/>
<path d="M670.67 263.44C710.657 193.004 693.014 125.078 648.771 101.627C614.177 83.8868 548.282 99.1352 513.574 126.375C504.974 133.124 464.509 168.336 439.311 202.522C333.628 338.635 346.005 486.171 449.784 584.21C505.957 630.85 551.138 633.694 599.695 611.801C521.623 563.258 476.225 482.363 534.52 406.216C569.253 360.846 590.77 339.229 631.634 305.321C650.885 288.5 659.15 279.362 670.67 263.44Z" fill="url(#paint2_linear_292_73)"/>
<path d="M534 407.156C475.705 483.303 521.623 563.258 599.694 611.801C653.189 575.762 661.094 536.606 642.052 488.062C626.818 455.7 592.897 426.688 534 407.156Z" fill="url(#paint3_linear_292_73)"/>
<path d="M378.143 316.731C394.803 382.969 391.565 416.605 378.143 474.47C361.606 415.857 361.332 381.366 378.143 316.731Z" fill="#C97791"/>
</g>
<defs>
<linearGradient id="paint0_linear_292_73" x1="403.85" y1="378.6" x2="63" y2="384.315" gradientUnits="userSpaceOnUse">
<stop stop-color="#FEBAAF"/>
<stop offset="1" stop-color="#FFC2A2"/>
</linearGradient>
<linearGradient id="paint1_linear_292_73" x1="261.035" y1="509.003" x2="82.9937" y2="509.003" gradientUnits="userSpaceOnUse">
<stop stop-color="#D88B97"/>
<stop offset="1" stop-color="#E49699"/>
</linearGradient>
<linearGradient id="paint2_linear_292_73" x1="352.15" y1="378.6" x2="693" y2="384.315" gradientUnits="userSpaceOnUse">
<stop stop-color="#FEB9B1"/>
<stop offset="1" stop-color="#FEB1BD"/>
</linearGradient>
<linearGradient id="paint3_linear_292_73" x1="499.059" y1="509.003" x2="662.819" y2="509.003" gradientUnits="userSpaceOnUse">
<stop stop-color="#B66388"/>
<stop offset="1" stop-color="#AC5585"/>
</linearGradient>
</defs>
</svg>
